<svg width="1400" height="490" viewBox="0 0 1400 490" fill="none" xmlns="http://www.w3.org/2000/svg">
<mask id="mask0" mask-type="alpha" maskUnits="userSpaceOnUse" x="20" y="16" width="1360" height="450">
<rect x="20" y="16" width="1360" height="450" fill="white"/>
<rect x="20" y="16" width="1360" height="450" fill="#8C4646"/>
<rect x="20.5" y="16.5" width="1359" height="449" stroke="black" stroke-opacity="0.05"/>
</mask>
<g mask="url(#mask0)">
<path d="M773.909 82.007C633.437 77.5801 518.194 -65.2229 518.194 -65.2229L832.417 -348L1400.03 282.734C1400.03 282.734 1180.42 277.5 1131.51 175.388C1082.59 73.2754 990.639 39.5943 909.625 41.5428C859.793 42.7413 827.407 83.693 773.909 82.007Z" fill="url(#paint0_radial)" fill-opacity="0.6"/>
<path d="M1005.73 391.213C819.186 421.715 644.356 327.552 644.356 327.552L649.836 517.854L1582.33 491L1570.49 80C1570.49 80 1367.94 85.8331 1238.72 180.817C1109.5 275.8 1192.26 360.711 1005.73 391.213Z" fill="url(#paint1_radial)" fill-opacity="0.6"/>
<path d="M130.208 100.746C-10.8227 49.1187 -175.461 253.162 -175.461 253.162L231.159 789.65L655.443 468.073C655.443 468.073 574.15 487.793 406.012 464.637C237.874 441.481 254.712 309.83 254.712 309.83C254.712 309.83 271.239 152.373 130.208 100.746Z" fill="url(#paint2_radial)" fill-opacity="0.6"/>
</g>
<defs>
<radialGradient id="paint0_radial" cx="0" cy="0" r="1" gradientUnits="userSpaceOnUse" gradientTransform="translate(764.865 58.3495) rotate(97.2478) scale(189.162 628.363)">
<stop stop-color="#555555"/>
<stop offset="1" stop-color="#191919" stop-opacity="0"/>
</radialGradient>
<radialGradient id="paint1_radial" cx="0" cy="0" r="1" gradientUnits="userSpaceOnUse" gradientTransform="translate(1092.95 309.165) rotate(49.9956) scale(192.327 412.332)">
<stop stop-color="#555555"/>
<stop offset="1" stop-color="#161616" stop-opacity="0"/>
</radialGradient>
<radialGradient id="paint2_radial" cx="0" cy="0" r="1" gradientUnits="userSpaceOnUse" gradientTransform="translate(258.37 337.064) rotate(48.6692) scale(549.481 292.825)">
<stop stop-color="#555555"/>
<stop offset="1" stop-color="#161616" stop-opacity="0"/>
</radialGradient>
</defs>
</svg>
